<?xml version="1.0" encoding="utf-8"?>
<!-- Generator: Adobe Illustrator 19.0.0, SVG Export Plug-In . SVG Version: 6.00 Build 0)  -->
<svg version="1.1" id="Layer_1" xmlns="http://www.w3.org/2000/svg" xmlns:xlink="http://www.w3.org/1999/xlink" x="0px" y="0px"
	 viewBox="0 0 283.5 283.5" style="enable-background:new 0 0 283.5 283.5;" xml:space="preserve">
<g id="XMLID_1_">
	<g id="XMLID_5_">
		<path id="XMLID_38_" d="M55.4,112c0,1,0,2,0,3.1c-0.7,10.3-4.3,19.4-11,27.3c-0.8,1-1.7,1.9-2.6,2.9c6.1,8.4,12.3,16.7,18.5,25.2
			c-0.2,0-0.4,0-0.6,0c-5.2,0-10.4,0-15.5,0c-0.4,0-0.6-0.1-0.8-0.4c-6.5-8.9-13-17.8-19.6-26.7c-0.1-0.1-0.1-0.2-0.3-0.4
			c0.5-0.4,1.1-0.8,1.6-1.2c2.3-1.8,4.7-3.5,6.9-5.5c5.2-4.9,8.5-11,9.7-18.1c0.4-2,0.4-4.1,0.6-6.2C46.7,112,51.1,112,55.4,112z"/>
		<path id="XMLID_37_" d="M22,112c0,19.5,0,38.9,0,58.4c-0.1,0-0.3,0.1-0.4,0.1c-4.2,0-8.5,0-12.7,0c-0.1,0-0.3,0-0.4,0
			c0-19.5,0-39,0-58.4C13,112,17.5,112,22,112z"/>
		<path id="XMLID_36_" d="M76.9,112c0,0.2,0,0.4,0,0.6c0,19,0,38.1,0,57.1c0,0.2,0,0.4,0,0.7c-4.2,0-8.4,0-12.7,0c0-0.2,0-0.5,0-0.7
			c0-19.1,0-38.1,0-57.2c0-0.2,0-0.3,0-0.5C68.4,112,72.6,112,76.9,112z"/>
		<path id="XMLID_35_" d="M275.2,164.7c-0.1,0.3-0.2,0.7-0.3,1c-1,3.5-4.4,5.9-7.9,5.6c-3.8-0.3-6.7-3.2-7-6.8
			c-0.4-4.1,2.5-7.8,6.6-8.3c4-0.5,7.8,2.2,8.5,6.2c0,0.1,0.1,0.2,0.1,0.4C275.2,163.4,275.2,164.1,275.2,164.7z"/>
		<path id="XMLID_32_" d="M115.1,170.4c0-0.8,0-1.6,0-2.5c-5.2,3.4-10.9,4.5-16.9,3.1s-10.6-4.9-13.6-10.2c-4.8-8.4-3.3-19,3.6-25.7
			c7-6.8,18.1-8.3,26.9-2.4c0-0.8,0-1.6,0-2.5c4.1,0,8.1,0,12.1,0c0,13.4,0,26.9,0,40.3C123.1,170.4,119.1,170.4,115.1,170.4z
			 M104.8,139.9c-2.6,0-4.4,0.4-6.1,1.3c-6,3.1-7.4,10.8-3,15.7c3.9,4.3,10.6,4.9,15.2,1.4c4.2-3.2,5.4-8.8,2.7-13.2
			C111.5,141.6,108.2,140,104.8,139.9z"/>
		<path id="XMLID_29_" d="M242.7,132.6c0-0.9,0-1.7,0-2.5c4,0,8,0,12.1,0c0,13.4,0,26.9,0,40.3c-4,0-8,0-12.1,0c0-0.8,0-1.6,0-2.5
			c-6.3,4-12.9,4.8-19.8,2.1c-4.4-1.7-7.8-4.6-10.3-8.6c-5.1-8.3-4-18.7,2.7-25.9C221.6,128.7,233.2,126.3,242.7,132.6z
			 M232.3,139.9c-2.6,0-4.5,0.5-6.2,1.4c-6.1,3.4-7.2,11.1-2.5,16c4.2,4.3,11.6,4.4,15.9,0.1c3.5-3.5,4.1-8.8,1.2-12.9
			C238.6,141.4,235.4,140,232.3,139.9z"/>
		<path id="XMLID_28_" d="M163.4,130.1c4,0,8,0,12,0c0,1.4,0,2.8,0,4.4c0.3-0.4,0.5-0.6,0.7-0.9c2.2-2.4,4.9-3.8,8-4.4
			c4.1-0.7,8-0.4,11.8,1.4c5.6,2.6,8.7,7,9.1,13.2c0,0.4,0,0.8,0,1.2c0,8.2,0,16.4,0,24.6c0,0.2,0,0.5,0,0.8c-4,0-8.1,0-12.1,0
			c0-0.2,0-0.4,0-0.6c0-7,0-14,0-21c0-1.1-0.2-2.3-0.5-3.3c-0.8-2.9-2.8-4.7-5.8-5.1c-3.2-0.5-6.2,0-8.7,2.4
			c-1.5,1.4-2.1,3.3-2.3,5.3c-0.1,0.5-0.1,1-0.1,1.6c0,6.7,0,13.4,0,20.2c0,0.2,0,0.5,0,0.8c-4.1,0-8.1,0-12.2,0
			C163.4,157,163.4,143.6,163.4,130.1z"/>
		<path id="XMLID_27_" d="M157.7,141.8c-1.6,0-3.2,0.3-4.7,0.9c-2.7,1.1-4.9,2.7-6.3,5.3c-0.5,1.1-0.8,2.2-0.8,3.4
			c0,6.1,0,12.1,0,18.2c0,0.2,0,0.4,0,0.7c-4.1,0-8.2,0-12.4,0c0-13.4,0-26.9,0-40.3c4.1,0,8.2,0,12.4,0c0,1.7,0,3.3,0,5.1
			c3.2-3.6,7.2-5,11.8-5.2C157.7,134,157.7,137.9,157.7,141.8z"/>
	</g>
</g>
</svg>
