<?xml version="1.0" encoding="utf-8"?>
<!-- Generator: Adobe Illustrator 19.0.0, SVG Export Plug-In . SVG Version: 6.00 Build 0)  -->
<svg version="1.1" id="Layer_1" xmlns="http://www.w3.org/2000/svg" xmlns:xlink="http://www.w3.org/1999/xlink" x="0px" y="0px"
	 viewBox="0 0 283.5 283.5" style="enable-background:new 0 0 283.5 283.5;" xml:space="preserve">
<style type="text/css">
	.st0{fill:#373737;}
	.st1{fill:#888888;}
	.st2{fill:#626262;}
</style>
<g id="XMLID_2_">
	<g id="XMLID_8_">
		<path id="XMLID_86_" class="st0" d="M11.3,127.4c0-4,0-8,0-12c0.1-0.3,0.2-0.6,0.3-0.9c0.3-1.9,0.4-3.8,0.7-5.7
			C17.8,73.5,46,46,81.2,41.3c1.9-0.2,3.8-0.5,5.6-0.7c3.6,0,7.1,0,10.7,0c0.2,0.1,0.5,0.2,0.7,0.2c6.9,0.5,13.6,1.9,20.1,4.2
			c8.5,3,16.3,7.2,23.4,12.8c-0.2,0.2-0.3,0.4-0.5,0.6c-2.9,2.8-6,5.5-8.8,8.4c-4.9,5.1-8.8,10.9-12.1,17.1
			c-7,13.5-10.1,27.9-9,43.2c0.6,8.3,2.3,16.4,5.4,24.1c4.7,11.7,11.6,21.9,21.1,30.3c1.3,1.1,2.6,2.3,3.9,3.5
			c-0.1,0.1-0.2,0.3-0.4,0.4c-19.7,14.8-41.6,20-65.7,15.2C42,193.9,16.5,166.3,12,132.4C11.8,130.6,11.5,129,11.3,127.4z"/>
		<path id="XMLID_85_" class="st1" d="M186.2,40.6c3.7,0,7.5,0,11.2,0c2.2,0.3,4.4,0.5,6.6,0.9c19.6,3.1,36.1,12.1,49,27.1
			c15.5,18.1,21.9,39.1,19.1,62.7c-2.3,19.5-10.9,36-25.3,49.3c-14.5,13.4-31.7,20.5-51.4,21.4c-12.4,0.6-24.4-1.7-35.8-6.7
			c-6.2-2.7-12.1-6.1-17.4-10.5c1.8-1.6,3.7-3.2,5.5-4.8c7.6-7.3,13.6-15.7,18-25.3c4.3-9.5,6.7-19.5,7.1-29.9
			c0.2-5.1-0.1-10.3-0.8-15.3c-2.5-17.4-10.2-32.4-22.5-45c-2.3-2.3-4.8-4.4-7.2-6.6c10.8-8.6,23.1-13.9,36.7-16.2
			C181.4,41.2,183.8,40.9,186.2,40.6z"/>
		<path id="XMLID_67_" class="st2" d="M141.7,57.8c0.2,0,0.3,0,0.5,0c2.4,2.2,4.9,4.3,7.2,6.6c12.2,12.6,19.9,27.6,22.5,45
			c0.7,5.1,1,10.2,0.8,15.3c-0.3,10.4-2.7,20.4-7.1,29.9c-4.4,9.6-10.4,18-18,25.3c-1.8,1.7-3.6,3.2-5.5,4.8c-0.2,0-0.3,0-0.5,0
			c-1.3-1.2-2.6-2.3-3.9-3.5c-9.5-8.4-16.4-18.6-21.1-30.3c-3.1-7.7-4.9-15.8-5.4-24.1c-1.1-15.2,2-29.6,9-43.2
			c3.2-6.3,7.2-12.1,12.1-17.1c2.8-2.9,5.8-5.6,8.8-8.4C141.4,58.2,141.6,58,141.7,57.8z"/>
		<path id="XMLID_66_" d="M42.7,224.8c2.6-3.2,5.8-4.2,9.6-3.6c3.5,0.6,6.1,2.8,6.3,6.3c0.3,5.1,0.1,10.2,0.1,15.4c-1.6,0-3.2,0-5,0
			c0-0.5,0-1,0-1.5c0-3.6,0-7.2,0-10.8c-0.1-3.2-1.7-5-4.5-5.1c-3-0.1-5.1,1.7-5.2,4.8c-0.2,3.7-0.1,7.3-0.1,11c0,0.5,0,1,0,1.6
			c-1.6,0-3.1,0-4.7,0c0-0.5,0-1,0-1.4c0-3.2,0-6.4,0-9.5c0-0.6,0-1.2-0.1-1.8c-0.2-3-1.9-4.7-4.7-4.6c-3,0-4.9,1.8-5,4.7
			c-0.1,3.7-0.1,7.3-0.1,11c0,0.5,0,1,0,1.7c-1.6,0-3.1,0-4.6,0c0-7.1,0-14.2,0-21.3c1.5,0,3,0,4.6,0c0,0.7,0.1,1.4,0.1,2.4
			c1.9-2.3,4.2-3.1,6.9-2.9C39,221.2,41.1,222.4,42.7,224.8z"/>
		<path id="XMLID_63_" d="M255.4,213c1.7,0,3.2,0,4.7,0c0,10,0,19.9,0,30c-0.8,0-1.5,0-2.3,0c-0.7,0-1.5,0-2.3,0
			c0-0.8-0.1-1.5-0.1-2.3c-5.2,3.9-11.1,3.5-14.8-1c-2.9-3.5-3.4-7.6-1.8-11.8c1.5-4,4.5-6.2,8.7-6.8c3-0.4,5.7,0.4,8,2.9
			C255.4,220.2,255.4,216.6,255.4,213z M242.9,232.2c0,4,2.8,6.9,6.6,7c3.6,0,6.4-3.1,6.4-7c0-4-2.7-6.9-6.5-6.9
			C245.6,225.2,242.9,228.1,242.9,232.2z"/>
		<path id="XMLID_60_" d="M212,223.8c0-0.7,0.1-1.4,0.1-2.2c1.5,0,3,0,4.6,0c0,7.1,0,14.1,0,21.3c-1.5,0-3,0-4.6,0
			c0-0.7-0.1-1.4-0.1-2.3c-2.3,2.5-5,3.2-8.1,2.8c-2.7-0.4-5-1.6-6.8-3.7c-3.6-4.3-3.3-11.3,0.5-15.4C201.5,220.2,207,220,212,223.8
			z M212.6,232.2c0-4-2.7-7-6.5-7c-3.7,0-6.5,2.9-6.5,6.9s2.9,7.1,6.7,7C209.8,239.1,212.6,236.1,212.6,232.2z"/>
		<path id="XMLID_57_" d="M85.2,242.9c-1.5,0-3,0-4.6,0c0-0.7-0.1-1.4-0.1-2.4c-2.1,2.5-4.8,3.1-7.7,2.8c-2.9-0.3-5.4-1.6-7.3-3.9
			c-3.5-4.4-3.2-11.4,0.7-15.3c3.9-4,9.4-4.1,14.3-0.4c0-0.7,0.1-1.4,0.1-2.2c1.5,0,3,0,4.6,0C85.2,228.6,85.2,235.7,85.2,242.9z
			 M80.8,232.2c0-4.1-2.7-7-6.5-7c-3.7,0-6.5,2.8-6.5,6.9c-0.1,4,2.9,7.1,6.7,7.1C78,239.1,80.8,236.1,80.8,232.2z"/>
		<path id="XMLID_54_" d="M153,234.2c-5.3,0-10.4,0-15.8,0c0.2,1.9,1,3.3,2.5,4.1c3.6,2,6.9,1,10.2-1.1c0.7,1.1,1.4,2.1,2.2,3.3
			c-2.8,2.3-6,3.1-9.5,2.9c-5.4-0.2-9.5-4.1-10.1-9.3c-0.7-6.4,2.2-11.3,7.7-12.7c6.7-1.7,12.2,2.2,12.7,9.1
			C153.1,231.7,153,232.9,153,234.2z M148.5,230.1c-0.4-3.5-2.6-5.3-5.9-5c-2.8,0.2-5.1,2.5-5,5
			C141.2,230.1,144.8,230.1,148.5,230.1z"/>
		<path id="XMLID_53_" d="M108.2,223.3c-0.7,1.2-1.3,2.4-1.8,3.5c-2.2-0.5-4.2-1.1-6.3-1.4c-1-0.2-2.2,0-3.2,0.5
			c-0.6,0.3-1.2,1.2-1.4,1.9c-0.2,1,0.7,1.4,1.6,1.6c1.6,0.3,3.2,0.4,4.8,0.8c1.1,0.2,2.3,0.5,3.3,1c4.3,2.1,4.7,7.7,0.7,10.4
			c-2.5,1.7-5.4,2-8.4,1.8c-2.8-0.2-5.5-0.9-7.9-2.7c0.8-1.2,1.5-2.4,2.2-3.5c2.7,1.8,5.6,2.5,8.7,2.1c0.9-0.1,1.8-0.4,2.5-0.9
			c1.3-0.9,1.2-2.5-0.3-3c-1.3-0.5-2.7-0.6-4-1c-1.5-0.4-3.1-0.6-4.5-1.1c-2-0.8-3.4-2.3-3.6-4.5c-0.2-2.4,0.6-4.5,2.6-5.9
			c2-1.5,4.4-1.8,6.8-1.8C103.3,221,106.2,221.8,108.2,223.3z"/>
		<path id="XMLID_52_" d="M112.1,221.5c1.4,0,2.7,0,4.2,0c0-2.2,0-4.3,0-6.4c1.6,0,3.1,0,4.7,0c0,2.1,0,4.2,0,6.4c2.6,0,5,0,7.6,0
			c0,1.5,0,2.8,0,4.3c-2.5,0-4.9,0-7.5,0c0,3.7-0.1,7.3,0,10.8c0.1,1.6,1.3,2.5,3,2.4c1.3-0.1,2.6-0.5,4.1-0.8
			c0.4,1,0.8,2.3,1.2,3.5c-2.3,2-8.2,2.5-10.8,0.3c-1.6-1.4-2.2-3.2-2.3-5.2c-0.1-3.2,0-6.4-0.1-9.5c0-0.5,0-0.9,0-1.5
			c-1.5,0-2.8,0-4.2,0C112.1,224.2,112.1,222.9,112.1,221.5z"/>
		<path id="XMLID_51_" d="M190.2,237.2c0.7,1.2,1.4,2.4,2.1,3.5c-3,3.5-11.2,3.5-15.3,0c-4.4-3.8-5-11.5-1.1-16
			c3.8-4.5,11.9-5.2,16.5-1.3c-0.7,1.2-1.4,2.4-2.2,3.7c-2.2-1.5-4.6-2.5-7.1-1.7c-1.3,0.4-2.7,1.3-3.6,2.4
			c-2.1,2.4-1.8,6.7,0.2,9.1C181.9,239.7,185.3,239.8,190.2,237.2z"/>
		<path id="XMLID_50_" d="M227.8,242.9c-1.6,0-3.1,0-4.6,0c0-7.1,0-14.2,0-21.4c1.5,0,3,0,4.6,0c0,0.7,0.1,1.4,0.1,2.2
			c3.4-2.7,5.7-3.4,8.6-2.3c-0.4,1.4-0.8,2.8-1.3,4.3c-0.8-0.1-1.5-0.2-2.2-0.3c-2.9-0.3-4.8,1.1-5,4c-0.2,2.3-0.2,4.7-0.2,7
			C227.8,238.5,227.8,240.6,227.8,242.9z"/>
		<path id="XMLID_49_" d="M158.3,221.5c1.6,0,3,0,4.6,0c0,0.7,0.1,1.4,0.1,1.9c1.3-0.7,2.5-1.7,4-2.1c1.4-0.4,3.1-0.2,4.8-0.3
			c-0.5,1.8-0.9,3.2-1.4,4.6c-0.8-0.1-1.6-0.2-2.3-0.3c-2.7-0.3-4.6,1.1-4.9,3.9c-0.2,2.4-0.2,4.8-0.2,7.2c0,2.2,0,4.3,0,6.6
			c-1.6,0-3.1,0-4.6,0C158.3,235.8,158.3,228.7,158.3,221.5z"/>
	</g>
</g>
</svg>
