<?xml version="1.0" encoding="utf-8"?>
<!-- Generator: Adobe Illustrator 19.0.0, SVG Export Plug-In . SVG Version: 6.00 Build 0)  -->
<svg version="1.1" id="Layer_1" xmlns="http://www.w3.org/2000/svg" xmlns:xlink="http://www.w3.org/1999/xlink" x="0px" y="0px"
	 viewBox="14.8 43.1 253.8 197.3" style="enable-background:new 14.8 43.1 253.8 197.3;" xml:space="preserve">
<g>
	<g>
		<path d="M268.6,117.6c0,2.7,0,5.4,0,8.1c-0.1,0.5-0.2,1-0.3,1.5c-0.7,4.6-1.1,9.3-2.3,13.9c-9.6,37.8-45,62.4-84.1,58.5
			c-14.2-1.4-26.9-6.5-38.4-15c-2.2-1.6-1.4-1.6-3.6,0c-12.9,9.5-27.4,14.8-43.4,15.5c-13,0.6-25.5-1.8-37.1-7.6
			c-23.2-11.5-37.6-30-43.1-55.3c-0.7-3.4-1-6.9-1.5-10.4c0-3.4,0-6.8,0-10.2c0.1-0.4,0.2-0.8,0.2-1.2c1-12.8,4.8-24.7,11.8-35.5
			c12.7-19.7,30.7-31.7,53.9-35.7c2.4-0.4,4.9-0.7,7.4-1c3.3,0,6.6,0,9.9,0c1.6,0.2,3.3,0.3,4.9,0.5c13.8,1.8,26.3,6.9,37.5,15.3
			c1,0.8,1.6,0.8,2.7,0c10.9-8.3,23.2-13.4,36.9-15.2c2.1-0.3,4.3-0.5,6.4-0.7c2.5,0,5.1,0,7.6,0c0.5,0.1,0.9,0.2,1.4,0.2
			c11.8,0.7,22.8,3.9,33,9.8c21.3,12.3,34.3,30.6,39,54.8C268,111.2,268.2,114.4,268.6,117.6z"/>
		<path d="M243.5,240.2c-4.1-1-7-3.4-8.2-7.6c-2.2-7.4,2.9-14.5,10.4-14.3c2,0,3.7,0.7,5.2,2c0.2,0.2,0.5,0.4,0.7,0.5
			c0,0,0.1,0,0.2-0.1c0-2.9,0-5.8,0-8.7c0-1.6,0-1.6,1.7-1.6c3,0,3,0,3,3.1c0,8.2,0,16.4,0,24.6c0,0.5,0,1,0,1.6c-1.6,0-3.1,0-4.6,0
			c0-0.7-0.1-1.3-0.1-1.8c-1.5,0.7-3,1.5-4.5,2.2C246,240.2,244.8,240.2,243.5,240.2z M252.2,229.2c0-3.9-2.6-6.6-6.3-6.6
			s-6.2,2.8-6.1,6.8c0,3.7,2.7,6.5,6.3,6.5C249.6,235.9,252.2,233,252.2,229.2z"/>
		<path d="M73.7,240.2c-0.8-0.3-1.6-0.5-2.4-0.8c-4.7-2.1-7.2-7.4-5.9-12.8c1.2-5.1,5.5-8.4,10.7-8.2c1.8,0.1,2.5,0.4,5.9,2.5
			c0-0.7,0.1-1.3,0.1-2c1.5,0,3,0,4.6,0c0,0.4,0.1,0.8,0.1,1.2c0,6.1,0,12.3,0,18.4c0,1.1-0.3,1.4-1.4,1.3c-1-0.1-2.1,0-3.3,0
			c-0.1-0.7-0.1-1.3-0.1-1.8c-1.5,0.7-3,1.4-4.5,2.2C76.3,240.2,75,240.2,73.7,240.2z M76,222.6c-3.7,0-6.2,2.8-6.2,6.7
			s2.7,6.6,6.4,6.6c3.4,0,6.1-2.9,6.1-6.6C82.3,225.4,79.7,222.6,76,222.6z"/>
		<path d="M201.4,240.2c-0.8-0.3-1.6-0.5-2.4-0.8c-4.7-2-7.1-7.3-6-12.7c1.1-5.1,5.4-8.5,10.6-8.3c2.3,0.1,4.2,1,6,2.7
			c0.1-0.8,0.1-1.4,0.2-2.1c1.5,0,3,0,4.6,0c0,0.4,0.1,0.8,0.1,1.2c0,6.1,0,12.3,0,18.4c0,1.1-0.3,1.4-1.4,1.3c-1-0.1-2.1,0-3.3,0
			c-0.1-0.7-0.1-1.3-0.1-1.8c-1.5,0.7-3,1.4-4.5,2.2C203.9,240.2,202.7,240.2,201.4,240.2z M203.9,222.6c-3.7,0-6.3,2.8-6.2,6.7
			c0,3.8,2.8,6.6,6.4,6.6c3.4,0,6.1-2.9,6.1-6.6C210.2,225.4,207.6,222.6,203.9,222.6z"/>
		<path d="M141,240.2c-0.5-0.2-0.9-0.3-1.4-0.5c-4.5-1.4-7.2-5.4-7.2-10.5c0.1-5.2,2.9-9.1,7.4-10.4c6.9-2,12.5,2.3,12.8,9.9
			c0.1,3.4,0.3,2.7-2.6,2.7c-3.8,0-7.5,0-11.3,0c-0.5,0-0.9,0-1.4,0c0.1,3.8,5.5,7.1,12.2,2.7c0.7,1.1,1.4,2.1,2.2,3.2
			c-1.7,1.8-4,2.2-6.1,2.9C144,240.2,142.5,240.2,141,240.2z M148,227.1c-0.4-3.3-2.4-4.9-5.7-4.7c-2.6,0.2-4.7,2.2-4.7,4.7
			C141,227.1,144.5,227.1,148,227.1z"/>
		<path d="M97.3,240.2c-1.7-0.6-3.4-1.1-5.1-1.7c-0.5-0.2-0.8-0.5-1.4-0.9c0.8-1.2,1.5-2.3,2.2-3.6c2.5,1.6,5.2,2.4,8.1,2.1
			c1-0.1,2.1-0.5,2.9-1.1c1.1-0.7,0.9-2.2-0.3-2.6c-1.4-0.5-2.8-0.7-4.3-1c-1.3-0.3-2.6-0.5-3.8-0.9c-2.2-0.8-3.7-2.2-3.9-4.7
			c-0.2-2.7,0.8-4.8,3.2-6.1c2.5-1.4,5.2-1.5,7.9-1.2c2.2,0.3,4.3,0.7,6.2,2.2c-0.7,1.2-1.3,2.4-2,3.7c-0.6-0.2-1.1-0.5-1.7-0.6
			c-1.9-0.4-3.9-0.7-5.8-0.9c-0.5-0.1-1.3,0.1-1.7,0.4c-0.5,0.4-1.2,1.2-1.2,1.7s0.8,1.3,1.4,1.5c1.6,0.4,3.2,0.5,4.9,0.8
			c1,0.2,2.1,0.5,3,1c4.3,2.1,4.8,7.6,0.7,10.3c-1.3,0.9-3,1.2-4.6,1.8C100.6,240.2,99,240.2,97.3,240.2z"/>
		<path d="M122,240.2c-4-1.5-5.1-3-5.2-7.3c-0.1-2.8-0.1-5.7,0-8.5c0-1-0.3-1.4-1.4-1.4c-2.9,0-2.8,0-2.9-2.9c0-1,0.3-1.4,1.4-1.4
			c2.9,0,2.9,0,2.9-2.9c0-1.1,0-2.2,0-3.4c0.9,0,1.6,0,2.4,0c0.7,0,1.4,0,2.3,0c0,2.1,0,4.1,0,6.3c2.5,0,4.9,0,7.4,0
			c0,1.5,0,2.8,0,4.2c-2.4,0-4.8,0-7.3,0c0,3.6-0.1,6.9,0,10.3c0.1,1.8,1.4,2.7,3.3,2.4c1.2-0.1,2.3-0.5,3.6-0.8
			c0.4,1,0.8,2.1,1.1,3.2c0.1,0.2-0.3,0.8-0.6,0.9c-1,0.4-2.1,0.8-3.2,1.1C124.5,240.2,123.2,240.2,122,240.2z"/>
		<path d="M181.1,240.2c-0.9-0.3-1.9-0.5-2.7-0.9c-4.5-1.9-6.8-6.3-6.2-11.8c0.5-4.5,3.9-8.1,8.3-8.9c3.1-0.6,6.1-0.4,8.8,1.2
			c0.5,0.3,0.9,0.6,1.4,1c-0.7,1.3-1.4,2.5-2.2,3.8c-2.2-1.5-4.5-2.5-7.1-1.6c-1.2,0.4-2.5,1.3-3.4,2.3c-1.9,2.3-1.7,6.3,0.2,8.6
			c2.1,2.6,5.3,2.7,10.3,0.3c0.7,1.2,1.4,2.4,2.1,3.6c-1.5,1.5-3.3,1.9-5,2.5C184.1,240.2,182.6,240.2,181.1,240.2z"/>
		<path d="M32.3,218.9c0.1,0.7,0.1,1.3,0.2,1.9c5.3-3.6,8.9-3.4,12.9,1c0.1-0.1,0.3-0.2,0.4-0.4c2.7-3.1,6.1-3.7,9.9-2.7
			c3.2,0.9,5.1,3.1,5.2,6.3c0.3,4.8,0.1,9.7,0.1,14.7c-1.5,0-3,0.1-4.4-0.1c-0.2,0-0.6-0.7-0.6-1.1c0-3.3,0-6.5,0-9.8
			c0-0.5,0-1,0-1.5c-0.2-2.9-1.7-4.5-4.4-4.5c-2.8,0-4.8,1.7-4.9,4.5c-0.1,3.7-0.1,7.4,0,11c0,1.1-0.4,1.4-1.5,1.4
			c-3.4,0-3.4,0-3.4-3.3c0-3,0-5.9,0-8.9c-0.1-3.6-2.1-5.2-5.6-4.7c-2.2,0.3-3.7,2-3.7,4.6c-0.1,3.6-0.1,7.2,0,10.8
			c0,1.2-0.3,1.6-1.5,1.5c-1-0.1-2,0-3.2,0c0-7,0-13.9,0-20.9C29.3,218.9,30.8,218.9,32.3,218.9z"/>
		<path d="M225,218.8c0.1,0.7,0.2,1.3,0.3,2.1c2.3-2.8,5.2-2.9,8.3-2.3c-0.4,1.4-0.7,2.6-1.1,3.7c-0.1,0.3-0.6,0.5-0.9,0.6
			c-0.2,0.1-0.5-0.1-0.7-0.1c-3.6-0.5-5.5,0.9-5.6,4.5s-0.1,7.2-0.1,10.8c0,0.5,0,1.1,0,1.7c-1.5,0-2.8,0-4.1,0
			c-0.2,0-0.6-0.5-0.6-0.8c0-6.4,0-12.9,0-19.3c0-0.3,0.4-0.8,0.7-0.8C222.4,218.7,223.7,218.8,225,218.8z"/>
		<path d="M157.5,218.8c1.7,0,3.1,0,4.6,0c0.1,0.7,0.1,1.3,0.2,2.1c2.3-2.9,5.2-3,8.4-2.4c-0.4,1.4-0.7,2.6-1.2,3.8
			c-0.1,0.3-0.6,0.5-0.9,0.5c-0.3,0.1-0.6-0.1-0.9-0.2c-3.5-0.5-5.3,0.9-5.5,4.4c-0.2,3.8-0.1,7.5-0.1,11.3c0,1.1-0.3,1.4-1.4,1.4
			c-3.3,0-3.3,0-3.3-3.3c0-5.3,0-10.7,0-16C157.5,220,157.5,219.5,157.5,218.8z"/>
	</g>
</g>
</svg>
