<?xml version="1.0" encoding="utf-8"?>
<!-- Generator: Adobe Illustrator 19.0.0, SVG Export Plug-In . SVG Version: 6.00 Build 0)  -->
<svg version="1.1" id="Layer_1" xmlns="http://www.w3.org/2000/svg" xmlns:xlink="http://www.w3.org/1999/xlink" x="0px" y="0px"
	 viewBox="0 0 283.5 283.5" style="enable-background:new 0 0 283.5 283.5;" xml:space="preserve">
<g id="XMLID_1_">
	<g id="XMLID_6_">
		<path id="XMLID_54_" d="M5.6,156.8c0-12.2,0.1-24.5,0-36.7c0-2.4,0.6-3.6,3.2-3.3c1.5,0.2,3,0.1,4.4,0c1.9-0.1,3.5,0.1,3.5,3
			c3.9-3.3,7.8-4.7,12.5-3.8c3.2,0.6,6,1.9,8.1,4.4c4.9,5.6,5.4,15.1,1.2,21.4c-2.4,3.6-5.8,5.7-10,6.3c-4,0.6-7.9,0.3-11.9-2.9
			c0,4.4,0,8,0,11.5C12.9,156.8,9.3,156.8,5.6,156.8z M23,138.8c4,0,6.7-2.7,6.7-6.6c0-4-2.9-6.9-6.8-7c-3.9,0-6.6,2.7-6.6,6.7
			C16.3,136.2,18.8,138.8,23,138.8z"/>
		<path id="XMLID_51_" d="M262.3,118.8c0-3,0.1-5.2,0-7.4c-0.1-1.6,0.6-2.3,2.2-2.5c2-0.2,4-0.6,5.9-1.1c2.3-0.7,2.7,0.4,2.7,2.3
			c0,10.4,0,20.8,0,31.3c0,5.9,0,6-5.9,5.9c-1.9,0-4.6,1.4-5.2-2.4c-7.8,5.1-15.2,5.4-21.3-2.1c-4.7-5.8-4.3-15.2,0.1-21
			c2.5-3.3,5.9-4.8,9.9-5.7C254.6,115.2,258.2,116.4,262.3,118.8z M248.9,132.3c0,4,3.1,7.3,6.9,7.3c3.6,0,6.6-3.3,6.6-7
			c0-4.3-2.8-7.2-6.8-7.3C251.8,125.3,248.9,128.3,248.9,132.3z"/>
		<path id="XMLID_31_" d="M192.1,148.3c-5.7-0.2-11.1-1.4-14.8-6.2c-6.9-8.6-2.9-21.7,7.6-25c7.7-2.4,15.2-2,21.4,3.7
			c7.3,6.8,5.6,20.1-3.3,24.7c-3.3,1.7-7.1,2.3-10.7,3.4C192.3,148.7,192.2,148.5,192.1,148.3z M192.4,138.7c3.8,0,6.7-2.7,6.7-6.4
			c0-3.8-3.2-7.1-6.9-7s-6.6,3-6.6,6.9C185.8,136.3,188.3,138.8,192.4,138.7z"/>
		<path id="XMLID_28_" d="M62.2,148.4c-4.8-0.1-9.1-1.3-12.9-4.3c-7.3-5.6-7.7-21.5,4-26.5c6.1-2.6,12.3-2.6,18.4-0.1
			c6.1,2.6,9.5,8.5,9.1,15c-0.6,9.7-6.9,13.7-13,15.1C66,148.1,64.1,148.2,62.2,148.4z M62.5,138.7c3.8,0,6.7-2.8,6.8-6.3
			c0-3.8-3.2-7.1-6.9-7c-3.7,0.1-6.8,3.3-6.7,6.8C55.7,136.1,58.5,138.7,62.5,138.7z"/>
		<path id="XMLID_27_" d="M170.2,147.2c-3.1,0-5.8-0.1-8.6,0c-1.6,0-2.1-0.7-2.1-2.2c0.1-4.1,0-8.2,0-12.2c0-1.2-0.2-2.4-0.4-3.6
			c-0.4-2.2-1.6-3.5-4.1-3.5c-2.6,0-4.6,0.8-5.1,3.4c-0.4,2.2-0.4,4.5-0.5,6.7c-0.1,3-0.1,6.1,0,9.1c0,1.7-0.6,2.4-2.3,2.3
			c-2.1-0.1-4.2-0.1-6.2,0c-1.5,0-2.2-0.5-2.2-2.1c0-8.8,0-17.5,0-26.3c0-1.6,0.7-2.1,2.2-2.1c1.7,0.1,3.5,0.1,5.2,0
			c1.8-0.1,3.5-0.1,3.6,1.7c3.2-0.9,6.4-2.4,9.6-2.6c6.5-0.4,10.7,3.7,10.9,10.2C170.4,133,170.2,140,170.2,147.2z"/>
		<path id="XMLID_26_" d="M84.9,138.7c3.4,0.6,6.5,1.3,9.6,1.8c1.2,0.2,2.6,0.1,3.8-0.2c0.8-0.3,1.5-1.2,2.2-1.9
			c-0.7-0.7-1.3-1.7-2.1-1.9c-2-0.6-4.1-0.7-6.1-1.2c-1.3-0.3-2.5-0.6-3.7-1c-3-1.1-5.2-3.1-5.5-6.5c-0.4-4,1.2-7.2,4.7-9.2
			c4.6-2.6,9.7-2.9,14.9-2.6c2.2,0.1,4.3,0.5,6.4,0.9c0.6,0.1,1,1.1,1.3,1.8c0.2,0.3,0,0.9-0.1,1.3c-1.7,6-0.4,5.1-6.1,4.1
			c-2.3-0.4-4.7-0.4-7-0.2c-0.8,0.1-1.6,1.2-2.4,1.9c0.7,0.6,1.4,1.6,2.2,1.8c2.8,0.7,5.6,1,8.4,1.8c4.7,1.3,6.7,3.7,7,7.9
			c0.3,3.9-2,7.6-6.1,9.1c-7.2,2.8-14.6,2.2-22,0.4c-0.5-0.1-1.2-1.1-1.1-1.6C83.6,142.9,84.3,140.8,84.9,138.7z"/>
		<path id="XMLID_25_" d="M136.7,116.8c-1.7,3-2.9,5.7-4.6,8.1c-0.5,0.7-2.2,0.9-3.3,0.9c-2.3-0.1-3,0.8-3,3
			c0.1,5.3,0,10.6,0.1,15.9c0,1.9-0.6,2.7-2.5,2.6c-2-0.1-4-0.1-6,0c-1.5,0-2.2-0.5-2.2-2.1c0-11,0-22,0-33.1c0-1.5,0.6-2.2,2.1-2.2
			c2.1,0.1,4.2,0.1,6.2,0c1.6-0.1,2.5,0.5,2.3,2.3c-0.1,0.7,0,1.4,0,2.1c-0.1,1.9,0.6,2.7,2.6,2.6
			C131,116.7,133.5,116.8,136.7,116.8z"/>
		<path id="XMLID_24_" d="M225.5,119c2.8-1,5.3-2,7.9-2.6c2.2-0.5,3.3,0.5,2.8,2.9c0,0.2-0.1,0.3-0.1,0.5c-0.1,1.9,0.4,4.3-0.5,5.6
			c-0.8,1-3.3,0.6-5.1,1c-3.8,0.8-5.1,2.4-5.2,6.3c0,4.1-0.1,8.2,0,12.2c0,1.7-0.4,2.6-2.3,2.5c-2.3-0.1-4.5-0.1-6.8,0
			c-1.5,0-2-0.6-2-2c0-8.8,0-17.5,0-26.3c0-1.6,0.6-2.2,2.1-2.1c2,0.1,4,0,6,0C224.2,116.8,226,116.6,225.5,119z"/>
	</g>
</g>
</svg>
