<?xml version="1.0" encoding="utf-8"?>
<!-- Generator: Adobe Illustrator 19.0.0, SVG Export Plug-In . SVG Version: 6.00 Build 0)  -->
<svg version="1.1" id="Layer_1" xmlns="http://www.w3.org/2000/svg" xmlns:xlink="http://www.w3.org/1999/xlink" x="0px" y="0px"
	 viewBox="0 0 283.5 283.5" style="enable-background:new 0 0 283.5 283.5;" xml:space="preserve">
<g id="XMLID_1_">
	<g id="XMLID_5_">
		<path id="XMLID_10_" d="M22.6,217.8c26.9,2.4,50.7-4.1,72.2-20.3c-22.5-1.9-37.5-13.1-45.9-34.3c7.5,0.9,14.6,1.1,22-1
			c-11.7-2.8-21.1-8.4-28.3-17.5c-7.2-9-10.8-19.4-10.8-31.4c6.9,3.5,13.8,5.7,22,6c-10.8-7.8-17.6-17.6-20.4-29.9
			c-2.8-12.4-1-24.2,5.4-35.6c26.7,31.3,60.3,48.6,101.4,51.4c-0.3-3.2-0.7-6.1-0.9-9.1c-1.9-31,26.8-56.3,57.4-50.8
			c10.1,1.8,18.8,6.1,26.1,13.3c1.2,1.2,2.3,1.4,3.9,1c9.3-2.1,18.1-5.4,26.4-10c0.7-0.4,1.4-0.7,2.4-1.2c-1.7,5.8-4.3,10.8-8,15
			s-7.9,7.9-12,12c4.4-0.9,8.9-1.7,13.3-2.9c4.3-1.2,8.6-2.8,13.3-4.5c-2,2.7-3.6,5.3-5.6,7.4c-5.5,5.6-11.3,11-17.1,16.4
			c-1.2,1.1-1.6,2-1.6,3.6c0.4,42.3-14.6,78.4-44.9,107.8c-19.1,18.5-42.2,29.6-68.3,34.3c-25.7,4.6-50.9,2.7-75.5-6.3
			c-8.9-3.3-17.4-7.5-25.4-12.5C23.4,218.5,23.2,218.3,22.6,217.8z"/>
	</g>
</g>
</svg>
