<?xml version="1.0" encoding="utf-8"?>
<!-- Generator: Adobe Illustrator 19.0.0, SVG Export Plug-In . SVG Version: 6.00 Build 0)  -->
<svg version="1.1" id="Layer_1" xmlns="http://www.w3.org/2000/svg" xmlns:xlink="http://www.w3.org/1999/xlink" x="0px" y="0px"
	 viewBox="28.1 28.1 227.9 228" style="enable-background:new 28.1 28.1 227.9 228;" xml:space="preserve">
<g id="XMLID_1_">
	<g id="XMLID_5_">
		<path id="XMLID_10_" d="M186.2,168.3c9,0,17.6-0.1,26.2,0c2.2,0,3.3-0.3,3.6-2.9c1.1-10.2,2.6-20.3,3.9-30.4
			c0.3-2.1-1.2-1.9-2.4-1.9c-5.9,0-11.9,0-17.8,0c-3.7,0-7.4-0.1-11.1,0c-2.2,0.1-2.7-0.7-2.7-2.8c0.1-6.4,0-12.8,0-19.1
			c0-11.4,4.7-16.1,16.2-16.3c5.2,0,10.4,0,15.6,0c1,0,1.9,0,3.1,0c0.1-1,0.2-1.8,0.2-2.6c0-8.7,0-17.4,0.1-26.2
			c0-2-0.5-2.9-2.7-2.9c-8.8-0.3-17.6-1-26.4-1c-23.8,0.2-40.3,15.6-42,39.3c-0.7,9.2-0.4,18.5-0.5,27.7c-0.1,3.7,0,3.7-3.9,3.7
			c-7.6,0-15.1,0.1-22.7,0c-2.3,0-3.3,0.5-3.3,3.1c0.2,9.7,0.1,19.4,0.1,29.1c0,0.9,0.1,1.7,0.2,2.9c9.8,0,19.5,0,29.4,0
			c0.1,1.2,0.2,2,0.2,2.9c0,27.3,0,54.7,0.1,82c0,2.3-0.6,3.1-3,3.1c-35-0.1-69.9-0.2-104.9,0c-7.8,0.1-13.6-5.9-13.6-13.6
			c0.2-66.9,0.2-133.8,0-200.6c0-7.9,5.7-13.7,13.7-13.7c66.9,0.2,133.8,0.2,200.6,0c7.9,0,13.6,5.9,13.6,13.6
			c-0.2,67-0.2,133.9,0,200.9c0,7.6-5.7,13.6-13.4,13.5c-17.8-0.3-35.6-0.2-53.4,0c-2.8,0-3.4-0.8-3.4-3.5
			c0.1-27.1,0.1-54.3,0.1-81.4C186.1,170.4,186.1,169.5,186.2,168.3z"/>
	</g>
</g>
</svg>
