<?xml version="1.0" encoding="utf-8"?>
<!-- Generator: Adobe Illustrator 19.0.0, SVG Export Plug-In . SVG Version: 6.00 Build 0)  -->
<svg version="1.1" id="Layer_1" xmlns="http://www.w3.org/2000/svg" xmlns:xlink="http://www.w3.org/1999/xlink" x="0px" y="0px"
	 viewBox="8 108.6 268.4 67.3" style="enable-background:new 8 108.6 268.4 67.3;" xml:space="preserve">
<g id="XMLID_1_">
	<g id="XMLID_8_">
		<path id="XMLID_54_" d="M16.7,108.7c0.1,9.2,0.1,18.4,0.2,27.6c0,0.2,0.3,0.4,0.6,0.8c4.2-3.8,9.2-5.3,14.8-4.8
			c9.3,0.7,17.3,8.5,18.6,17.9c1.8,12.5-5.4,22.5-15.6,25c-0.3,0.1-0.6,0.4-0.9,0.6c-2.9,0-5.7,0-8.6,0c-2.8-1.5-5.7-3-8.7-4.6
			c-0.1,0.2-0.4,0.6-0.4,0.8c0.3,2.8-1.4,3.2-3.7,3c-1.7-0.1-3.3,0.1-5,0.2c0-22.1,0-44.2,0-66.3c0-0.1,0-0.2,0-0.2
			C11,108.7,13.8,108.7,16.7,108.7z M43,154.3c0-8.6-5.4-14.6-13.3-14.6c-7.8,0-13.7,6.1-13.7,14.4c0,8.1,5.9,14.4,13.5,14.4
			C37.2,168.5,42.9,162.5,43,154.3z"/>
		<path id="XMLID_51_" d="M153.5,108.7c0,9.3,0,18.7,0,28.4c0.8-0.4,1.4-0.6,1.8-0.9c6.2-5,13-5.1,19.9-2.2
			c7.4,3.2,11.6,9.2,12.4,17.1c1.3,12.1-5.1,21.1-15.6,24c-0.3,0.1-0.6,0.4-0.9,0.6c-2.9,0-5.7,0-8.6,0c-3-1.6-5.9-3.1-8.9-4.7
			c0,0-0.1,0-0.1,0.1c-0.1,0.2-0.2,0.5-0.2,0.8c0.4,2.8-1.1,3.4-3.5,3.1c-0.4-0.1-0.9,0-1.3,0c-3.5,0-3.5,0-3.5-3.6
			c0-18.4,0-36.8,0-55.3c0-2.5-0.1-5-0.2-7.5C147.8,108.7,150.7,108.7,153.5,108.7z M179.5,154.1c0-8.6-5.2-14.4-13-14.4
			c-7.9,0-13.7,6-13.7,14.2c0,8.3,5.8,14.5,13.5,14.5C174.1,168.5,179.5,162.7,179.5,154.1z"/>
		<path id="XMLID_48_" d="M113.8,175.8c-1.8-0.8-3.7-1.6-5.5-2.6c-9.2-4.6-13.5-16.5-9.8-27c3.5-10,14-16,24.1-13.5
			c3,0.7,5.7,2.6,8.9,4.1c0-9.3,0-18.7,0-28.1c2.9,0,5.7,0,8.6,0c-0.1,1.2-0.1,2.5-0.1,3.7c0,19.9,0,39.8,0,59.7c0,2.1-0.5,3-2.8,3
			c-4.7-0.1-4.7,0-5.9-3.9c-2.9,1.5-5.9,3.1-8.8,4.6C119.5,175.8,116.7,175.8,113.8,175.8z M105.6,154.2c0,8.5,5.4,14.3,13.3,14.3
			c7.5,0,13.5-6.3,13.6-14.3s-6-14.5-13.7-14.5C110.8,139.7,105.6,145.4,105.6,154.2z"/>
		<path id="XMLID_45_" d="M252.3,175.8c-1.9-0.9-3.8-1.6-5.6-2.6c-8.6-5.1-11.2-13-10.4-22.4c0.7-8,6.2-15.4,13.7-17.6
			c11.6-3.4,22,2.2,25.2,13.6c0.4,1.3,0.8,2.5,1.2,3.8c0,1.8,0,3.6,0,5.4c-9.7,0-19.4-0.1-29.2-0.1c-2.5,0-3.1,0.8-2.4,3.4
			c1.3,4.9,4.5,7.8,9.3,8.9c4.7,1,8.8-0.1,12.2-3.7c0.7-0.7,1.9-1.7,2.6-1.5c1.9,0.5,3.7,1.6,5.8,2.7c-1,1.3-1.8,2.4-2.6,3.4
			c-2.8,3.5-6.9,4.9-10.7,6.8C258.4,175.8,255.3,175.8,252.3,175.8z M245.4,148.4c7.3,0,14.4,0,21.4,0c0.2-4.3-3.9-8.2-8.7-8.7
			C251.6,139.1,246.2,142.6,245.4,148.4z"/>
		<path id="XMLID_42_" d="M207.2,175.8c-0.4-0.2-0.7-0.6-1.1-0.7c-9.8-3.3-14.2-10.5-14.7-20.5c-0.5-10.2,5.5-19.4,14.9-21.7
			c15.3-3.7,25.5,7.9,25,21c-0.1,2.1-1.5,1.9-2.8,1.9c-8.4,0-16.8,0-25.2,0c-3.7,0-4.1,0.6-3,4.1c1.5,4.4,4.6,7.2,9.1,8.2
			s8.8,0.2,11.8-3.4c1.9-2.4,3.4-2.2,5.5-0.8c0.9,0.6,1.9,1,3,1.6c-2.2,4.6-5.8,7.2-10.1,9c-1.1,0.5-2.1,0.9-3.2,1.3
			C213.3,175.8,210.2,175.8,207.2,175.8z M200.1,148.4c1.4,0.1,2.2,0.2,2.9,0.2c5.6,0,11.2,0,16.8,0c2.7,0,3.2-0.9,1.9-3.2
			c-2-3.5-5-5.5-9-5.7c-4.6-0.3-8.4,1.1-11,5.2C201.1,145.8,200.8,146.9,200.1,148.4z"/>
		<path id="XMLID_41_" d="M68.7,175.8c-0.7-0.3-1.4-0.8-2.1-1c-6-2.3-10-7.7-10-14.2c-0.1-8.3,0-16.6-0.1-24.9
			c0-1.9,0.6-2.7,2.6-2.7c6.8,0.2,5.7-0.7,5.7,5.6c0.1,6.6,0,13.2,0,19.8c0,6.4,3.3,9.9,9,10c5.6,0.1,10.5-4.6,10.6-10.2
			c0.1-7.3,0.1-14.7,0-22c0-2.4,0.5-3.4,3.1-3.3c5.7,0.2,5.2-0.7,5.2,5.2c0,11.1,0,22.2,0,33.2c0,3.7,0,3.7-3.8,3.7
			c-0.4,0-0.7,0-1.1,0c-2.4,0.3-3.8-0.4-3.5-3.1c0-0.3-0.2-0.6-0.3-0.8c-2.5,1.6-5,3.1-7.4,4.7C74.1,175.8,71.4,175.8,68.7,175.8z"
			/>
	</g>
</g>
</svg>
