<?xml version="1.0" encoding="utf-8"?>
<!-- Generator: Adobe Illustrator 19.0.0, SVG Export Plug-In . SVG Version: 6.00 Build 0)  -->
<svg version="1.1" id="Layer_1" xmlns="http://www.w3.org/2000/svg" xmlns:xlink="http://www.w3.org/1999/xlink" x="0px" y="0px"
	 viewBox="0 0 850.4 850.4" style="enable-background:new 0 0 850.4 850.4;" xml:space="preserve">
<style type="text/css">
	.st0{display:none;fill:#A4342E;}
	.st1{display:none;fill:#995655;}
	.st2{display:none;fill:#AA8A8A;}
</style>
<g id="XMLID_4_">
	<path id="XMLID_5_" d="M103.7,440.8c4.2,0,7.5-1.3,10.4-4.6c2.6-2.6,3.3-5.9,3.6-9.5v-180c0-17,17.9-32.3,34.2-32.3h32.6
		c-9.1,0-16.6,3.3-23.2,9.8c-5.5,5.5-8.8,12.4-9.5,19.9v66.2c0.7,0,1.3,0,2,0h75.3c3.9-0.3,6.8-1.6,9.8-4.6c0.7-0.7,1-1.3,1.6-2
		v-57.1c0-8.8,3.3-16.3,9.5-22.5c6.2-6.5,16-9.8,24.8-9.8h32.3c-8.8,0-16.6,3.3-22.8,9.8c-5.9,5.5-8.8,12.4-9.5,19.9v164.3
		c0,17.3-17.6,32.3-34.2,32.3h-16c4.6,0,8.2-1.3,11.4-4.6c2.6-2.6,4.2-5.9,4.6-9.5v-103c-1.6,3.6-3.6,6.5-6.5,9.5
		c-6.5,6.5-14,9.5-23.1,9.5h-59v65.9c0,8.8-2.9,16.6-9.5,23.2c-6.2,6.2-15.7,9.1-24.8,9.1H103.7z"/>
	<path id="XMLID_7_" d="M330.3,440.8H330c-8.8,0-16.3-3.3-22.8-9.5c-6.2-6.5-9.1-14-9.1-23.2c0-8.8,2.9-16.3,9.1-22.5
		c6.5-6.5,14-9.8,23.1-9.8h17.9c3.6-0.3,6.8-2,9.5-4.6c2.9-2.6,4.2-5.9,4.9-9.5v-3.9c-0.7-3.6-2-6.8-4.9-9.8
		c-2.6-2.6-5.9-4.2-9.5-4.6h-17.9H330c-8.8,0-16.3-3.3-22.8-9.5c-6.2-6.5-9.1-14-9.1-22.8v-32.6c0,9.1,2.9,16.6,9.1,23.2
		c5.9,5.5,12.4,8.8,20.2,9.5h35.2c8.8,0,16.6,2.9,22.8,9.5c6.2,6.2,9.5,13.7,9.5,22.8v64.6c0,9.1-3.3,16.6-9.5,23.2
		c-6.2,6.2-14,9.5-22.8,9.5H330.3z M321.2,408.2c0,6.5,5.2,11.7,11.7,11.7s11.7-5.2,11.7-11.7c0-6.2-5.2-11.4-11.7-11.4
		S321.2,402,321.2,408.2z"/>
	<path id="XMLID_10_" d="M397.2,440.8c3.9,0,7.5-1.6,10.4-4.6c2.3-2.6,3.6-5.9,3.6-9.5V246.4c0-8.8,2.9-16.3,9.1-22.5
		c6.2-6.5,14-9.8,22.8-9.8h32.6c-9.1,0-16.6,3.3-23.2,9.8c-5.9,5.5-8.8,12.4-9.5,20.2v117.4L467,327c5.2-7.2,12.1-11.7,20.9-13.4
		c8.8-2,16.6,0,24.1,4.9l13,9.1c-3.6-2.6-7.5-3.3-11.7-2.6c-3.9,0.7-6.8,2.3-9.1,5.2L476.7,370l20.5,40.8
		c3.3,6.2,7.5,15.7,12.1,20.5c6.5,6.2,14,9.1,23.1,9.1h-32.3c-9.1,0-18.6-1-24.8-7.2c-4.9-5.2-6.5-9.5-9.5-15.3l-9.1-19.6l-3.9,6.5
		c-10.4,15.3-20.9,35.9-41.7,35.9H397.2z"/>
	<path id="XMLID_12_" d="M573.2,440.8h-0.3c-8.8,0-16.3-3.3-22.8-9.5c-6.2-6.5-9.5-14.3-9.5-23.2v-67.5c-0.3-7.8-3.6-14.3-9.5-20.2
		c-5.9-6.5-13.7-9.5-23.2-9.5h31.6c9.1,0,16.6,2.9,22.8,9.5c6.5,6.2,9.8,14,9.8,22.8v83.1c0.3,3.6,1.6,6.8,4.6,9.8
		c3.3,2.9,7.2,4.6,11.7,4.6H573.2z M544.2,291.4c-2.9-3.3-4.6-7.2-4.6-11.7c0-4.2,1.6-8.2,4.6-11.4c3.3-3.3,7.2-4.9,11.7-4.9
		c4.6,0,8.2,1.6,11.4,4.9c3.3,3.3,4.9,7.2,4.9,11.4c0,4.6-1.6,8.5-4.9,11.7c-3.3,2.9-6.8,4.6-11.4,4.6
		C551.4,296,547.5,294.4,544.2,291.4z"/>
	<path id="XMLID_15_" d="M648.9,311c10.4,0,17.6,2.9,25.1,10.4c2.6,2.3,4.6,4.9,5.9,7.8c7.8-15.7,21.5-18.3,37.2-18.3
		c8.8,0,16.6,3.3,22.8,9.8c6.2,6.2,9.5,13.7,9.5,22.8v67.5c0.7,7.8,3.9,14.3,9.5,20.2c6.5,6.2,14,9.1,22.8,9.1h-32.3
		c-9.1,0-16.6-2.9-22.8-9.1c-6.5-6.5-9.5-14.3-9.5-23.2v-50.2c-1-7.5-6.8-13.4-14.3-14.3h-3.9c-7.5,1-13.4,6.8-14,14.3v68.5
		c0.3,3.6,1.6,6.8,4.6,9.5c3.3,3.3,6.8,4.6,11.4,4.6h-16c-9.1,0-16.6-2.9-23.2-9.1c-6.2-6.5-9.5-14.3-9.5-23.2v-50.2
		c-1-7.5-6.8-13.4-14.3-14.3h-3.6c-6.5,0.7-12.1,5.2-13.7,11.1v71.7c0.3,3.6,2,6.8,4.6,9.5c3.3,3.3,7.2,4.6,11.4,4.6h-16
		c-9.1,0-16.6-2.9-22.8-9.1c-6.5-6.5-9.8-14.3-9.8-23.2v-66.5c0-25.1-11.1-30-17.3-30h16.6c9.1,0,17,3.3,23.1,9.8
		c2.3,2.3,4.2,4.9,5.9,7.8c4.9-10.1,15.3-18.3,32-18.3H648.9z"/>
</g>
<rect id="XMLID_23_" x="160.7" y="378" class="st0" width="527.2" height="32"/>
<rect id="XMLID_32_" x="160.7" y="410" class="st1" width="527.2" height="32"/>
<rect id="XMLID_33_" x="160.7" y="442" class="st2" width="527.2" height="32"/>
<path id="XMLID_31_" d="M103.7,457c4.2,0,7.6,1.1,10.6,4.4c2.6,2.6,3.7,5.7,3.7,9.3v66.8c0,17,17.7,31.5,34,31.5h169h361.5h50.9
	c16.3,0,34.7-14.5,34.7-31.5v-66.8c0-3.6,0.8-6.8,3.4-9.5c1.6-1.8,3.1-2.7,5-3.5c3.5-0.6,5.2-0.7,5.2-0.7H103.7z M430.6,484.4
	c1.3-1.3,2.8-1.9,4.6-1.9s3.2,0.6,4.5,1.9c1.3,1.3,1.9,2.8,1.9,4.5c0,1.8-0.6,3.3-1.9,4.6c-1.3,1.1-2.7,1.8-4.5,1.8
	s-3.3-0.6-4.6-1.8c-1.1-1.3-1.8-2.8-1.8-4.6C428.9,487.2,429.5,485.7,430.6,484.4z M275.2,521.7c-4.8,0-8.6-3.9-8.6-8.6
	c0-4.8,3.9-8.6,8.6-8.6c4.8,0,8.6,3.9,8.6,8.6C283.9,517.8,280,521.7,275.2,521.7z M318.9,523.2c-6.7,0-12.1-5.4-12.1-12.1
	c0-6.7,5.4-12.1,12.1-12.1c6.7,0,12.1,5.4,12.1,12.1C331.1,517.8,325.6,523.2,318.9,523.2z M421,536.9c0,3.6-1,8.9-3.6,11.4
	c-2.4,2.4-5.1,3.7-8.5,3.7c-13.2,0-19.9,0-31.7,0c-3.6,0-8-1.3-10.6-3.7c-2.4-2.5-3.6-5.6-3.6-9v-70.5c0-1.5-0.9-2.8-2-3.9
	c-1.4-1.1-3-1.9-4.8-1.9h0.8h6.1c3.4,0,8.7,1.4,11.2,3.8c2.5,2.5,3.8,5.6,3.8,9.1V537h31.8c3.1,0,5.5-1.5,7.7-3.8
	c2.5-2.4,3.6-4.8,3.6-8.2V536.9z M442,552h-0.1c-3.4,0-6.5-1.4-9-3.8c-2.4-2.5-3.8-5.7-3.8-9.2v-26.3c0-3.1-1.3-5.7-3.6-7.9
	c-2.3-2.5-5.2-3.7-8.9-3.7h12.3c3.6,0,6.2,1.2,8.6,3.7c2.5,2.4,3.5,5.5,3.5,9v32.5c0,1.4,0.9,2.8,2.1,3.9c1.3,1.1,3.1,1.9,4.9,1.9
	H442z M487,502.9c-1.1,1-2,2.4-2,3.8c0,8.7,0,14.4,0,20.5c0,6.2,1.5,16-11.1,16c-2.4,5-7.1,8.5-12.4,8.5c-4.2,0-6.8-0.9-9.7-3.9
	c-3.9-3.8-3.9-8.9-3.9-14.3c0-6.6,0-13.1,0-19.7c0-3.4,1-6.6,3.4-9c2.5-2.5,5.3-3.8,8.9-3.8h6.4c-1.8,0-3.5,0.6-4.7,1.9
	c-1,1-1.9,2.4-1.9,3.8c0,9,0,17.9,0,26.9c1,2.9,3,5.4,5.9,6.4h1.5c2.5-1,4.6-2.9,5.6-5.3c0-6.9,0-13.9,0-20.7c0-3.6,1-6.7,3.6-9.2
	c2.5-2.5,5.4-3.8,8.9-3.8h6.2C490.1,501,488.3,501.6,487,502.9z M525.3,548.1c-2.4,2.4-5.3,3.9-8.8,3.9h-13.5
	c-3.1,0-5.7,1.2-7.9,3.4c-2.4,2.5-3.2,8.6-3.2,8.6l0-12.2c-0.1-3.6,0.9-6.6,3.3-8.9c2.4-2.5,5.5-3.9,8.9-3.9h11.5
	c-9.4-10-31.3-23-20.5-34c2.4-2.5,5.5-4,8.9-4h13.5c2.9,0,5.6-1.1,7.8-3.3c2.5-2.5,3.7-5.3,3.7-8.8l0.1,12.5c0,3.4-1.3,6.4-3.8,8.8
	c-2.4,2.4-5.3,3.6-8.8,3.6h-11.5C515.1,524,536.5,537,525.3,548.1z M567.1,523.2c-6.7,0-12.1-5.4-12.1-12.1
	c0-6.7,5.4-12.1,12.1-12.1c6.7,0,12.1,5.4,12.1,12.1C579.2,517.8,573.8,523.2,567.1,523.2z M610.6,521.7c-4.8,0-8.6-3.9-8.6-8.6
	c0-4.8,3.9-8.6,8.6-8.6c4.8,0,8.6,3.9,8.6,8.6C619.2,517.8,615.3,521.7,610.6,521.7z"/>
</svg>
