<?xml version="1.0" encoding="utf-8"?>
<!-- Generator: Adobe Illustrator 19.0.0, SVG Export Plug-In . SVG Version: 6.00 Build 0)  -->
<svg version="1.1" id="Layer_1" xmlns="http://www.w3.org/2000/svg" xmlns:xlink="http://www.w3.org/1999/xlink" x="0px" y="0px"
	 viewBox="38.8 38.7 205.8 205.9" style="enable-background:new 38.8 38.7 205.8 205.9;" xml:space="preserve">
<g id="XMLID_1_">
	<g id="XMLID_56_">
		<path id="XMLID_66_" d="M142.4,38.7c13.9,0.3,27.9,0.5,41.8,0.9c11.1,0.3,22,2.3,31.8,7.9c14.7,8.3,23.2,21.1,26.5,37.5
			c1.8,9,2.1,18.2,2.1,27.3c0,22.1,0,44.3-0.2,66.4c-0.1,9.2-0.8,18.3-3.7,27.1c-6.2,18.7-18.9,30.6-37.9,35.8
			c-6.6,1.8-13.4,2.7-20.2,2.7c-24.3,0.2-48.6,0.4-72.9,0.3c-8.4,0-16.9-0.3-25.2-2.2c-22.2-5-36.5-18.2-42.5-40.2
			c-1.7-6.3-2.5-12.8-2.6-19.3c-0.3-21.1-0.6-42.2-0.6-63.3c0-10.7,0.1-21.5,1.8-32.2C44.6,62.6,62,45,86.8,40.9
			c9.9-1.7,19.8-1.7,29.8-1.8c8.6-0.1,17.3,0,25.9,0C142.4,38.9,142.4,38.8,142.4,38.7z M57.4,140.8c0.1,0,0.2,0,0.3,0
			c0,9.3-0.2,18.6,0.1,28c0.2,8,0.5,16.1,1.4,24.1c0.7,7,3.3,13.4,7.7,19c6.5,8.2,15.4,12.1,25.5,13.2c7.9,0.9,15.8,1.2,23.8,1.3
			c14,0.2,28,0.2,42,0c10.1-0.1,20.1-0.4,30.2-1c7.6-0.4,14.9-2.4,21.3-6.8c8.3-5.7,13.1-13.7,14.7-23.5c1.1-6.6,1.6-13.3,1.7-20
			c0.2-20,0.2-40,0.2-60c0-8.7,0-17.5-1.8-26.1c-2.6-13.3-9.8-22.8-22.7-27.6c-5.9-2.2-12.1-3-18.3-3.2c-27.6-0.8-55.2-0.9-82.8,0.1
			c-5.2,0.2-10.4,1-15.4,2.3c-10.7,2.8-18.4,9.3-22.9,19.6c-2.6,6.1-3.7,12.5-3.9,19C57.9,113,57.7,126.9,57.4,140.8z"/>
		<path id="XMLID_59_" d="M89,141.8c-0.1-29,23.7-52.8,52.9-52.8c29.1-0.1,53,23.7,53.1,52.6c0,29.4-23.4,53.2-52.8,53.2
			C112.8,194.9,89,171.2,89,141.8z M141.8,176.2c19.2,0,34.3-15.2,34.3-34.3c0-18.9-15.2-34.1-34.1-34.1c-19,0-34.2,15.2-34.2,34.2
			C107.7,160.9,122.9,176.2,141.8,176.2z"/>
		<path id="XMLID_58_" d="M196.9,74.5c7,0.1,12.5,5.6,12.4,12.6c0,6.7-5.8,12.4-12.5,12.2c-7-0.1-12.4-5.6-12.3-12.5
			C184.6,80.1,190.2,74.5,196.9,74.5z"/>
	</g>
</g>
</svg>
