<?xml version="1.0" encoding="utf-8"?>
<!-- Generator: Adobe Illustrator 19.0.0, SVG Export Plug-In . SVG Version: 6.00 Build 0)  -->
<svg version="1.1" id="Layer_1" xmlns="http://www.w3.org/2000/svg" xmlns:xlink="http://www.w3.org/1999/xlink" x="0px" y="0px"
	 viewBox="14.5 100.6 254.9 82.9" style="enable-background:new 14.5 100.6 254.9 82.9;" xml:space="preserve">
<g id="XMLID_2_">
	<g id="XMLID_8_">
		<path id="XMLID_25_" d="M252.7,101.8c5.6,26.6,11.1,53.3,16.7,80c-6.4,0-12.7,0-19,0c-0.1-0.6-0.3-1.3-0.4-1.9
			c-0.7-3.2-1.3-6.4-2-9.6c-0.1-0.6-0.1-0.6-0.8-0.6c-8.4,0-16.8,0-25.1,0c-0.7,0-0.7,0-0.9,0.7c-1.2,3.5-2.5,7.1-3.7,10.6
			c-0.1,0.3-0.2,0.5-0.3,0.8c-7.2,0-14.3,0-21.6,0c0.1-0.3,0.2-0.6,0.3-0.9c4.2-10,8.3-20,12.5-30c5.8-13.9,11.6-27.7,17.3-41.6
			c0.5-1.3,1.1-2.5,1.9-3.6c1.4-2,3.2-3.3,5.7-3.7c0.6-0.1,1.3-0.2,1.9-0.2c5.7,0,11.3,0,17,0C252.3,101.8,252.5,101.8,252.7,101.8z
			 M244.5,153.5c-0.1-1.2-6.2-29.4-6.5-30c-3.6,10-7.1,19.9-10.8,30C233.1,153.5,238.8,153.5,244.5,153.5z"/>
		<path id="XMLID_24_" d="M56.1,181.9c-0.1-0.3-0.2-0.5-0.2-0.7c-3.5-13.3-6.9-26.7-10.4-40c-2-7.8-4.1-15.7-6.1-23.5
			c-0.2-0.7-0.4-1.3-0.7-2c-0.6-1.8-1.8-3.1-3.3-4.2c-1.2-0.8-2.5-1.4-3.8-1.9c-5.3-2.2-10.8-4-16.5-5.1c-0.2,0-0.4-0.1-0.6-0.2
			c0.1-0.8,0.3-1.6,0.4-2.5c0.3,0,0.5,0,0.7,0c11.2,0,22.5,0,33.7,0c1.9,0,3.7,0.4,5.4,1.3c2.5,1.5,4,3.7,4.5,6.5
			c1.4,7.1,2.7,14.2,4,21.3c1.2,6.1,2.3,12.1,3.5,18.2c0.4,2.2,0.8,4.4,1.2,6.5c0,0.1,0.1,0.2,0.1,0.3c0.1,0,0.1,0,0.1,0s0,0,0.1,0
			c7.1-18,14.3-36.1,21.4-54.1c7.2,0,14.3,0,21.6,0c-0.1,0.4-0.3,0.7-0.4,1c-6.9,16.5-13.8,33-20.7,49.6c-4,9.6-8,19.2-12,28.8
			c-0.3,0.7-0.2,0.7-1,0.7c-6.7,0-13.5,0-20.2,0C56.6,181.9,56.4,181.9,56.1,181.9z"/>
		<path id="XMLID_23_" d="M137.8,178.8c1.2-5.8,2.5-11.6,3.7-17.4c0.2,0.1,0.4,0.2,0.6,0.3c4.4,2.3,9,3.8,13.9,4.5
			c2.5,0.4,5,0.5,7.5,0.4c2.3-0.1,4.5-0.6,6.6-1.5c1.4-0.6,2.6-1.5,3.5-2.6c1-1.2,1.5-2.6,1.4-4.3c-0.1-0.9-0.4-1.8-0.9-2.5
			c-0.5-0.8-1.2-1.6-2-2.1c-1.2-0.9-2.5-1.8-3.8-2.6c-2.4-1.4-4.9-2.7-7.4-4.1c-2.5-1.4-5-3-7.2-4.8c-1.6-1.4-3.1-2.9-4.3-4.6
			c-2.4-3.4-3.3-7.3-3-11.4c0.2-3,0.8-5.9,2-8.7c2-4.4,5.1-7.8,9.1-10.4c3.9-2.6,8.1-4.2,12.6-5.2c4.3-1,8.7-1.3,13.1-1.1
			c5.5,0.3,11,1.2,16.2,3.1c0.3,0.1,0.6,0.2,1,0.4c-1.2,5.6-2.4,11.2-3.6,16.8c-0.2,0-0.3,0-0.4-0.1c-3.7-1.7-7.7-2.8-11.7-3.3
			c-3-0.4-6.1-0.5-9.1,0.1c-1.7,0.3-3.2,0.9-4.7,1.8c-0.9,0.6-1.7,1.3-2.3,2.2c-1.1,1.7-1.1,3.4,0,5.2c0.5,0.8,1.1,1.4,1.8,2
			c1.2,0.8,2.3,1.7,3.6,2.4c2.2,1.3,4.5,2.4,6.7,3.7c2.8,1.5,5.5,3.2,8,5.2c2.3,1.9,4.3,4.1,5.7,6.7c1.4,2.6,2.1,5.3,2.2,8.2
			c0.2,4.9-0.9,9.6-3.4,13.9c-2.3,3.9-5.6,6.9-9.5,9.2c-3.7,2.2-7.8,3.5-12,4.4c-4.3,0.9-8.7,1.1-13,0.9c-6.8-0.3-13.5-1.6-19.9-4
			C138.4,179,138.1,178.9,137.8,178.8z"/>
		<path id="XMLID_22_" d="M120,101.8c6.9,0,13.7,0,20.5,0c0,0.2,0,0.3,0,0.4c-5.6,26.5-11.2,53-16.8,79.6c-6.9,0-13.7,0-20.6,0
			C108.7,155.1,114.3,128.5,120,101.8z"/>
	</g>
</g>
</svg>
